<?xml version="1.0" encoding="us-ascii" standalone="no"?><svg xmlns="http://www.w3.org/2000/svg" xmlns:xlink="http://www.w3.org/1999/xlink" contentStyleType="text/css" height="493px" preserveAspectRatio="none" style="width:1043px;height:493px;" version="1.1" viewBox="0 0 1043 493" width="1043px" zoomAndPan="magnify"><defs/><g><!--cluster Pool--><g id="cluster_Pool"><path d="M438.5,6 L472.5,6 A5.25,5.25 0 0 1 476,9.5 L483,28.2969 L627.5,28.2969 A3.5,3.5 0 0 1 631,31.7969 L631,99.5 A3.5,3.5 0 0 1 627.5,103 L438.5,103 A3.5,3.5 0 0 1 435,99.5 L435,9.5 A3.5,3.5 0 0 1 438.5,6 " fill="none" style="stroke:#454645;stroke-width:1.0;"/><line style="stroke:#454645;stroke-width:1.0;" x1="435" x2="483" y1="28.2969" y2="28.2969"/><text fill="#000000" font-family="sans-serif" font-size="14" font-weight="bold" lengthAdjust="spacing" textLength="35" x="439" y="20.9951">Pool</text></g><!--cluster Core--><g id="cluster_Core"><path d="M443.5,136 L478.5,136 A5.25,5.25 0 0 1 482,139.5 L489,158.2969 L806.5,158.2969 A3.5,3.5 0 0 1 810,161.7969 L810,229.5 A3.5,3.5 0 0 1 806.5,233 L443.5,233 A3.5,3.5 0 0 1 440,229.5 L440,139.5 A3.5,3.5 0 0 1 443.5,136 " fill="none" style="stroke:#454645;stroke-width:1.0;"/><line style="stroke:#454645;stroke-width:1.0;" x1="440" x2="489" y1="158.2969" y2="158.2969"/><text fill="#000000" font-family="sans-serif" font-size="14" font-weight="bold" lengthAdjust="spacing" textLength="36" x="444" y="150.9951">Core</text></g><!--cluster ERC20--><g id="cluster_ERC20"><path d="M655.5,282 L704.5,282 A5.25,5.25 0 0 1 708,285.5 L715,304.2969 L1002.5,304.2969 A3.5,3.5 0 0 1 1006,307.7969 L1006,375.5 A3.5,3.5 0 0 1 1002.5,379 L655.5,379 A3.5,3.5 0 0 1 652,375.5 L652,285.5 A3.5,3.5 0 0 1 655.5,282 " fill="none" style="stroke:#454645;stroke-width:1.0;"/><line style="stroke:#454645;stroke-width:1.0;" x1="652" x2="715" y1="304.2969" y2="304.2969"/><text fill="#000000" font-family="sans-serif" font-size="14" font-weight="bold" lengthAdjust="spacing" textLength="50" x="656" y="296.9951">ERC20</text></g><!--cluster util--><g id="cluster_util"><path d="M9.5,282 L73.5,282 A5.25,5.25 0 0 1 77,285.5 L84,304.2969 L483.5,304.2969 A3.5,3.5 0 0 1 487,307.7969 L487,375.5 A3.5,3.5 0 0 1 483.5,379 L9.5,379 A3.5,3.5 0 0 1 6,375.5 L6,285.5 A3.5,3.5 0 0 1 9.5,282 " fill="none" style="stroke:#454645;stroke-width:1.0;"/><line style="stroke:#454645;stroke-width:1.0;" x1="6" x2="84" y1="304.2969" y2="304.2969"/><text fill="#000000" font-family="sans-serif" font-size="14" font-weight="bold" lengthAdjust="spacing" textLength="65" x="10" y="296.9951">Utilities</text></g><!--entity ttp--><g id="elem_ttp"><rect fill="#ADD8E6" height="46.2969" rx="3.5" ry="3.5" style="stroke:#181818;stroke-width:0.5;" width="164" x="451" y="41"/><rect fill="#ADD8E6" height="10" style="stroke:#181818;stroke-width:0.5;" width="15" x="595" y="46"/><rect fill="#ADD8E6" height="2" style="stroke:#181818;stroke-width:0.5;" width="4" x="593" y="48"/><rect fill="#ADD8E6" height="2" style="stroke:#181818;stroke-width:0.5;" width="4" x="593" y="52"/><text fill="#000000" font-family="sans-serif" font-size="14" lengthAdjust="spacing" textLength="124" x="466" y="73.9951">Twin Token Pools</text></g><!--entity proxy--><g id="elem_proxy"><rect fill="#F1F1F1" height="46.2969" rx="3.5" ry="3.5" style="stroke:#181818;stroke-width:0.5;" width="154" x="456" y="171"/><rect fill="#F1F1F1" height="10" style="stroke:#181818;stroke-width:0.5;" width="15" x="590" y="176"/><rect fill="#F1F1F1" height="2" style="stroke:#181818;stroke-width:0.5;" width="4" x="588" y="178"/><rect fill="#F1F1F1" height="2" style="stroke:#181818;stroke-width:0.5;" width="4" x="588" y="182"/><text fill="#000000" font-family="sans-serif" font-size="14" lengthAdjust="spacing" textLength="114" x="471" y="203.9951">AxiomPay Proxy</text></g><!--entity ap--><g id="elem_ap"><rect fill="#ADD8E6" height="46.2969" rx="3.5" ry="3.5" style="stroke:#181818;stroke-width:0.5;" width="110" x="684" y="171"/><rect fill="#ADD8E6" height="10" style="stroke:#181818;stroke-width:0.5;" width="15" x="774" y="176"/><rect fill="#ADD8E6" height="2" style="stroke:#181818;stroke-width:0.5;" width="4" x="772" y="178"/><rect fill="#ADD8E6" height="2" style="stroke:#181818;stroke-width:0.5;" width="4" x="772" y="182"/><text fill="#000000" font-family="sans-serif" font-size="14" lengthAdjust="spacing" textLength="70" x="699" y="203.9951">AxiomPay</text></g><!--entity or--><g id="elem_or"><rect fill="#F1F1F1" height="46.2969" rx="3.5" ry="3.5" style="stroke:#181818;stroke-width:0.5;" width="145" x="844.5" y="317"/><rect fill="#F1F1F1" height="10" style="stroke:#181818;stroke-width:0.5;" width="15" x="969.5" y="322"/><rect fill="#F1F1F1" height="2" style="stroke:#181818;stroke-width:0.5;" width="4" x="967.5" y="324"/><rect fill="#F1F1F1" height="2" style="stroke:#181818;stroke-width:0.5;" width="4" x="967.5" y="328"/><text fill="#000000" font-family="sans-serif" font-size="14" lengthAdjust="spacing" textLength="105" x="859.5" y="349.9951">Original ERC20</text></g><!--entity pr--><g id="elem_pr"><rect fill="#F1F1F1" height="46.2969" rx="3.5" ry="3.5" style="stroke:#181818;stroke-width:0.5;" width="141" x="668.5" y="317"/><rect fill="#F1F1F1" height="10" style="stroke:#181818;stroke-width:0.5;" width="15" x="789.5" y="322"/><rect fill="#F1F1F1" height="2" style="stroke:#181818;stroke-width:0.5;" width="4" x="787.5" y="324"/><rect fill="#F1F1F1" height="2" style="stroke:#181818;stroke-width:0.5;" width="4" x="787.5" y="328"/><text fill="#000000" font-family="sans-serif" font-size="14" lengthAdjust="spacing" textLength="101" x="683.5" y="349.9951">Private ERC20</text></g><!--entity ab--><g id="elem_ab"><rect fill="#F1F1F1" height="46.2969" rx="3.5" ry="3.5" style="stroke:#181818;stroke-width:0.5;" width="138" x="22" y="317"/><rect fill="#F1F1F1" height="10" style="stroke:#181818;stroke-width:0.5;" width="15" x="140" y="322"/><rect fill="#F1F1F1" height="2" style="stroke:#181818;stroke-width:0.5;" width="4" x="138" y="324"/><rect fill="#F1F1F1" height="2" style="stroke:#181818;stroke-width:0.5;" width="4" x="138" y="328"/><text fill="#000000" font-family="sans-serif" font-size="14" lengthAdjust="spacing" textLength="98" x="37" y="349.9951">Address book</text></g><!--entity va--><g id="elem_va"><rect fill="#ADD8E6" height="46.2969" rx="3.5" ry="3.5" style="stroke:#181818;stroke-width:0.5;" width="105" x="195.5" y="317"/><rect fill="#ADD8E6" height="10" style="stroke:#181818;stroke-width:0.5;" width="15" x="280.5" y="322"/><rect fill="#ADD8E6" height="2" style="stroke:#181818;stroke-width:0.5;" width="4" x="278.5" y="324"/><rect fill="#ADD8E6" height="2" style="stroke:#181818;stroke-width:0.5;" width="4" x="278.5" y="328"/><text fill="#000000" font-family="sans-serif" font-size="14" lengthAdjust="spacing" textLength="65" x="210.5" y="349.9951">Validator</text></g><!--entity ec--><g id="elem_ec"><rect fill="#ADD8E6" height="46.2969" rx="3.5" ry="3.5" style="stroke:#181818;stroke-width:0.5;" width="135" x="335.5" y="317"/><rect fill="#ADD8E6" height="10" style="stroke:#181818;stroke-width:0.5;" width="15" x="450.5" y="322"/><rect fill="#ADD8E6" height="2" style="stroke:#181818;stroke-width:0.5;" width="4" x="448.5" y="324"/><rect fill="#ADD8E6" height="2" style="stroke:#181818;stroke-width:0.5;" width="4" x="448.5" y="328"/><text fill="#000000" font-family="sans-serif" font-size="14" lengthAdjust="spacing" textLength="95" x="350.5" y="349.9951">Elliptic Curve</text></g><!--entity ie--><g id="elem_ie"><ellipse cx="917" cy="455" fill="#F1F1F1" rx="8" ry="8" style="stroke:#181818;stroke-width:0.5;"/><text fill="#000000" font-family="sans-serif" font-size="14" lengthAdjust="spacing" textLength="50" x="892" y="484.9951">IERC20</text></g><!--link ap to ie--><g id="link_ap_ie"><path d="M794.069,203.441 C864.552,215.499 980.615,240.016 1006,274 C1036.06,314.236 1028.42,342.06 1006,387 C988.905,421.2664 961.6326,435.6913 942.6216,443.6023 " fill="none" id="ap-to-ie" style="stroke:#454645;stroke-width:1.0;"/><polygon fill="none" points="926.003,450.5177,944.9267,449.1418,940.3164,438.0627,926.003,450.5177" style="stroke:#454645;stroke-width:1.0;"/></g><!--link proxy to ap--><g id="link_proxy_ap"><path d="M610.293,194 C634.725,194 655.218,194 677.781,194 " fill="none" id="proxy-to-ap" style="stroke:#454645;stroke-width:1.0;"/><polygon fill="#454645" points="683.781,194,674.781,190,678.781,194,674.781,198,683.781,194" style="stroke:#454645;stroke-width:1.0;"/><text fill="#000000" font-family="sans-serif" font-size="13" lengthAdjust="spacing" textLength="37" x="628.5" y="187.0669">agent</text></g><!--link or to ie--><g id="link_or_ie"><path d="M917,363.056 C917,388.3619 917,410.5755 917,427.7673 " fill="none" id="or-to-ie" style="stroke:#454645;stroke-width:1.0;"/><polygon fill="none" points="917,445.7673,923,427.7673,911,427.7673,917,445.7673" style="stroke:#454645;stroke-width:1.0;"/></g><!--link pr to ie--><g id="link_pr_ie"><path d="M773.743,363.056 C815.629,389.6464 868.2454,423.0495 892.6714,438.5554 " fill="none" id="pr-to-ie" style="stroke:#454645;stroke-width:1.0;"/><polygon fill="none" points="907.868,448.2024,895.8871,433.4899,889.4558,443.621,907.868,448.2024" style="stroke:#454645;stroke-width:1.0;"/></g><!--reverse link ttp to proxy--><g id="link_ttp_proxy"><path d="M533,99.004 C533,122.449 533,147.356 533,170.855 " fill="none" id="ttp-backto-proxy" style="stroke:#454645;stroke-width:1.0;"/><polygon fill="#454645" points="533,87.004,529,93.004,533,99.004,537,93.004,533,87.004" style="stroke:#454645;stroke-width:1.0;"/><text fill="#000000" font-family="sans-serif" font-size="13" lengthAdjust="spacing" textLength="8" x="523.925" y="107.2468">1</text><text fill="#000000" font-family="sans-serif" font-size="13" lengthAdjust="spacing" textLength="37" x="491.2594" y="160.0481">many</text></g><!--link ap to ab--><g id="link_ap_ab"><path d="M696.041,217.033 C675.677,226.32 650.672,236.101 627,241 C579.879,250.753 238.892,231.675 194,249 C158.332,262.765 130.6617,290.2302 112.1627,312.1212 " fill="none" id="ap-to-ab" style="stroke:#454645;stroke-width:1.0;"/><polygon fill="#454645" points="108.29,316.704,117.1543,312.4116,111.5173,312.885,111.0439,307.248,108.29,316.704" style="stroke:#454645;stroke-width:1.0;"/><text fill="#000000" font-family="sans-serif" font-size="13" lengthAdjust="spacing" textLength="136" x="195" y="262.0669">query account status</text></g><!--link ap to va--><g id="link_ap_va"><path d="M693.679,217.042 C673.679,225.862 649.619,235.271 627,241 C493.113,274.909 443.691,216.753 318,274 C296.871,283.624 281.8441,297.6256 269.0051,312.4496 " fill="none" id="ap-to-va" style="stroke:#454645;stroke-width:1.0;"/><polygon fill="#454645" points="265.077,316.985,273.9928,312.8006,268.3504,313.2055,267.9455,307.5631,265.077,316.985" style="stroke:#454645;stroke-width:1.0;"/><text fill="#000000" font-family="sans-serif" font-size="13" lengthAdjust="spacing" textLength="69" x="584" y="262.0669">validate zk</text></g><!--reverse link ap to pr--><g id="link_ap_pr"><path d="M739,229.184 C739,256.166 739,289.454 739,316.553 " fill="none" id="ap-backto-pr" style="stroke:#454645;stroke-width:1.0;"/><polygon fill="#454645" points="739,217.184,735,223.184,739,229.184,743,223.184,739,217.184" style="stroke:#454645;stroke-width:1.0;"/></g><!--reverse link ap to or--><g id="link_ap_or"><path d="M775.7513,224.7314 C809.2013,251.7924 856.083,289.719 889.546,316.79 " fill="none" id="ap-backto-or" style="stroke:#454645;stroke-width:1.0;"/><polygon fill="#454645" points="766.422,217.184,768.5709,224.0675,775.7513,224.7314,773.6025,217.8479,766.422,217.184" style="stroke:#454645;stroke-width:1.0;"/></g><!--link pr to ec--><g id="link_pr_ec"><path d="M668.333,340 C610.077,340 533.985,340 476.59,340 " fill="none" id="pr-to-ec" style="stroke:#454645;stroke-width:1.0;"/><polygon fill="#454645" points="470.59,340,479.59,344,475.59,340,479.59,336,470.59,340" style="stroke:#454645;stroke-width:1.0;"/><text fill="#000000" font-family="sans-serif" font-size="13" lengthAdjust="spacing" textLength="161" x="489" y="333.0669">homomorphic calculation</text></g><!--SRC=[RL9DJyCm3BttLvXoGwe477kOD5KSE20cDBYxgLcZfd59qhBoyTznkecr34LHulZvsNxEHQYf9GWy9hxHjaE7BPIecftZtbO56tOG75elBh9XXlBqrfDLz43UuuxMHkyiAC6GWoJHyNn5HP3UtpqLjzSfe0TDIIVa0eTqmsnI-4m05BSTMuc4TFkkBMov8GlHxwUe43gu5FewbAQdvFl4KR2ZCuxrNdExmH4sZlVZnD35s_-eoO-B113jBFjQnNhX40pPIbvpaBIYmgo4OtD_QdXqUgSj6ZZrpcu9sJWzOA0Peei8qNkU-jUOfNmEskYWwQ1EBzQP15NbP2nGCZU71iibu0MDhZ2mcxm3BjkV0U-CqLtG2ehU3JIXIIsd4SUJtgHmbMMGjcX5qeFUKKLHhSn1VeeR0PMIJnN01mozFxe7p6LFrH1yDF4r4eaMnvle5cLOITuSQcvbkQwMYXGQrHiCckqF]--></g></svg>